<svg width="800" height="800" viewBox="0 0 800 800" fill="none" xmlns="http://www.w3.org/2000/svg">
<g clip-path="url(#clip0_2344_11)">
<path d="M473.268 312.977C486.13 312.977 496.547 323.398 496.547 336.254C496.547 349.107 486.13 359.524 473.268 359.524C460.417 359.524 449.99 349.108 449.99 336.254C449.99 323.396 460.415 312.977 473.268 312.977Z" fill="white"/>
<path d="M717.089 656.425C700.895 625.96 682.55 591.421 682.55 537.22C682.55 446.542 732.847 414.64 734.895 413.388C742.336 408.985 744.781 399.384 740.378 391.943C735.966 384.488 726.355 382.045 718.923 386.448C716.162 388.091 651.238 427.789 651.238 537.22C651.238 599.227 672.417 639.089 689.429 671.122C701.628 694.053 711.249 712.184 711.249 732.906C711.249 747.755 708.017 758.476 701.914 763.949C695.696 769.514 687.573 768.688 687.42 768.688C686.676 768.576 685.913 768.526 685.157 768.526H627.534C634.24 758.028 638.194 745.614 638.194 732.251V26.484C638.194 19.4567 633.506 13.2894 626.728 11.3993C619.971 9.49361 612.764 12.3714 609.127 18.386L532.665 144.949C509.204 144.503 440.264 143.965 233.892 143.965C190.072 143.965 168.383 143.996 157.427 144.074L86.9894 8.44802C83.6575 2.03724 76.3441 -1.26961 69.3845 0.452427C62.3668 2.1648 57.4326 8.44802 57.4326 15.6589V732.232C57.4326 769.494 87.7393 799.817 125.012 799.817H364.238H570.619H684.301C685.329 799.907 686.787 800 688.601 800C696.257 800 710.025 798.297 722.153 787.83C735.688 776.129 742.559 757.653 742.559 732.885C742.56 704.378 730.197 681.079 717.089 656.425ZM222.341 390.831C192.244 390.831 167.757 366.35 167.757 336.254C167.757 306.152 192.254 281.667 222.341 281.667C252.433 281.667 276.924 306.152 276.924 336.254C276.924 366.35 252.442 390.831 222.341 390.831ZM375.204 453.727H363.642L362.378 475.476C361.899 483.794 354.999 490.225 346.764 490.225C346.463 490.225 346.153 490.215 345.846 490.203C337.218 489.693 330.62 482.285 331.134 473.671L332.292 453.737H320.414C311.774 453.737 304.757 446.735 304.757 438.082C304.757 429.428 311.774 422.425 320.414 422.425H375.206C383.849 422.425 390.861 429.428 390.861 438.082C390.859 446.735 383.847 453.727 375.204 453.727ZM473.267 390.831C443.171 390.831 418.68 366.35 418.68 336.254C418.68 306.152 443.181 281.667 473.267 281.667C503.375 281.667 527.876 306.152 527.876 336.254C527.874 366.35 503.375 390.831 473.267 390.831Z" fill="white"/>
<path d="M222.341 359.522C235.195 359.522 245.615 349.102 245.615 336.248C245.615 323.395 235.195 312.975 222.341 312.975C209.487 312.975 199.067 323.395 199.067 336.248C199.067 349.102 209.487 359.522 222.341 359.522Z" fill="white"/>
</g>
<defs>
<clipPath id="clip0_2344_11">
<rect width="800" height="800" fill="white"/>
</clipPath>
</defs>
</svg>
